<?xml version="1.0" encoding="utf-8"?>
<!-- Generator: Adobe Illustrator 16.0.3, SVG Export Plug-In . SVG Version: 6.00 Build 0)  -->
<!DOCTYPE svg PUBLIC "-//W3C//DTD SVG 1.1//EN" "http://www.w3.org/Graphics/SVG/1.1/DTD/svg11.dtd">
<svg version="1.1"
	 id="Layer_1" xmlns:rdf="http://www.w3.org/1999/02/22-rdf-syntax-ns#" xmlns:dc="http://purl.org/dc/elements/1.1/" xmlns:cc="http://creativecommons.org/ns#" xmlns:sodipodi="http://sodipodi.sourceforge.net/DTD/sodipodi-0.dtd" xmlns:inkscape="http://www.inkscape.org/namespaces/inkscape" xmlns:svg="http://www.w3.org/2000/svg"
	 xmlns="http://www.w3.org/2000/svg" xmlns:xlink="http://www.w3.org/1999/xlink" x="0px" y="0px" width="1280px" height="1024px"
	 viewBox="0 0 1280 1024" enable-background="new 0 0 1280 1024" xml:space="preserve">
<rect fill="#70C041" width="1280" height="1024"/>
<path fill="#FFFFFF" d="M687.711,409.658h-39.793v-36.343h23.467c0.586,0,1.149-0.225,1.575-0.627l10.14-9.612
	c0.456-0.431,0.714-1.033,0.714-1.661s-0.258-1.229-0.714-1.661l-10.14-9.609c-0.426-0.403-0.989-0.627-1.575-0.627h-23.467v-11.486
	h23.467c0.586,0,1.149-0.225,1.575-0.627l10.14-9.609c0.456-0.432,0.714-1.033,0.714-1.661c0-0.628-0.258-1.229-0.714-1.662
	l-10.14-9.609c-0.426-0.403-0.989-0.628-1.575-0.628h-23.467v-4.336c0-4.366-3.552-7.918-7.918-7.918
	c-4.363,0-7.916,3.552-7.92,7.918v4.337h-23.464c-0.586,0-1.149,0.225-1.575,0.627l-10.14,9.609
	c-0.456,0.433-0.714,1.034-0.714,1.662c0,0.629,0.258,1.229,0.714,1.662l10.14,9.608c0.426,0.403,0.989,0.628,1.575,0.628h23.464
	v34.58h-23.464c-0.586,0-1.149,0.225-1.575,0.628l-10.14,9.608c-0.456,0.432-0.714,1.033-0.714,1.661
	c0,0.628,0.258,1.229,0.714,1.661l10.14,9.61c0.426,0.403,0.989,0.628,1.575,0.628h23.464v13.25h-39.791
	c-1.265,0-2.289,1.025-2.289,2.289s1.024,2.289,2.289,2.289h95.422c1.264,0,2.289-1.025,2.289-2.289
	S688.975,409.658,687.711,409.658z M670.473,354.096l7.725,7.319l-7.725,7.321h-22.555v-14.641L670.473,354.096L670.473,354.096z
	 M636.658,309.901c0.001-1.843,1.5-3.342,3.342-3.342s3.341,1.498,3.341,3.34v4.337h-6.683V309.901z M601.804,326.134l7.724-7.32
	h60.945l7.725,7.32l-7.725,7.319h-60.944L601.804,326.134z M609.528,391.83l-7.725-7.32l7.725-7.32h22.552v14.64H609.528
	L609.528,391.83z M636.658,338.032h6.683v71.626h-6.683V338.032z"/>
<text transform="matrix(1 0 0 1 282.793 541.5889)" fill="#FFFFFF" font-family="'OpenSans'" font-size="80">No Image Available</text>
</svg>
