<?xml version="1.0" encoding="utf-8"?>
<!-- Generator: Adobe Illustrator 16.0.3, SVG Export Plug-In . SVG Version: 6.00 Build 0)  -->
<!DOCTYPE svg PUBLIC "-//W3C//DTD SVG 1.1//EN" "http://www.w3.org/Graphics/SVG/1.1/DTD/svg11.dtd">
<svg version="1.1"
	 id="Layer_1" xmlns:rdf="http://www.w3.org/1999/02/22-rdf-syntax-ns#" xmlns:dc="http://purl.org/dc/elements/1.1/" xmlns:cc="http://creativecommons.org/ns#" xmlns:sodipodi="http://sodipodi.sourceforge.net/DTD/sodipodi-0.dtd" xmlns:inkscape="http://www.inkscape.org/namespaces/inkscape" xmlns:svg="http://www.w3.org/2000/svg"
	 xmlns="http://www.w3.org/2000/svg" xmlns:xlink="http://www.w3.org/1999/xlink" x="0px" y="0px" width="1280px" height="1024px"
	 viewBox="0 0 1280 1024" enable-background="new 0 0 1280 1024" xml:space="preserve">
<path d="M957.105,752.214H692.63v-241.55h155.968c3.893,0,7.637-1.493,10.467-4.167l67.392-63.886
	c3.031-2.867,4.747-6.863,4.747-11.037c0-4.175-1.717-8.172-4.747-11.039l-67.392-63.862c-2.83-2.678-6.574-4.171-10.467-4.171
	H692.63v-76.338h155.968c3.893,0,7.637-1.493,10.467-4.171l67.392-63.863c3.031-2.871,4.747-6.864,4.747-11.042
	c0-4.175-1.717-8.167-4.747-11.043l-67.392-63.866c-2.83-2.678-6.574-4.171-10.467-4.171H692.63V89.187
	c0-29.02-23.607-52.626-52.63-52.626c-29.001,0-52.615,23.604-52.638,52.626v28.822H431.41c-3.893,0-7.637,1.493-10.467,4.171
	l-67.391,63.866c-3.03,2.875-4.746,6.868-4.746,11.043c0,4.179,1.716,8.17,4.746,11.042l67.391,63.863
	c2.831,2.678,6.574,4.171,10.467,4.171h155.952v229.828H431.41c-3.893,0-7.637,1.494-10.467,4.175l-67.391,63.861
	c-3.03,2.869-4.746,6.864-4.746,11.039s1.716,8.171,4.746,11.039l67.391,63.869c2.831,2.682,6.574,4.175,10.467,4.175h155.952
	v88.063H322.896c-8.402,0-15.214,6.812-15.214,15.213c0,8.402,6.812,15.214,15.214,15.214h634.209c8.4,0,15.212-6.812,15.212-15.214
	C972.317,759.025,965.506,752.214,957.105,752.214z M842.536,382.929l51.338,48.646l-51.338,48.662H692.63v-97.309L842.536,382.929
	L842.536,382.929z M617.789,89.198c0.008-12.246,9.969-22.211,22.211-22.211s22.204,9.958,22.204,22.2v28.822h-44.415V89.198z
	 M386.133,197.088l51.338-48.652h405.065l51.338,48.652l-51.338,48.648H437.472L386.133,197.088z M437.472,633.723l-51.339-48.656
	l51.339-48.649h149.89v97.305L437.472,633.723L437.472,633.723z M617.789,276.164h44.415v476.05h-44.415V276.164z"/>
</svg>
