<svg xmlns:rdf="http://www.w3.org/1999/02/22-rdf-syntax-ns#" xmlns:dc="http://purl.org/dc/elements/1.1/" xmlns:cc="http://creativecommons.org/ns#" xmlns:sodipodi="http://sodipodi.sourceforge.net/DTD/sodipodi-0.dtd" xmlns:inkscape="http://www.inkscape.org/namespaces/inkscape" xmlns:svg="http://www.w3.org/2000/svg" xmlns="http://www.w3.org/2000/svg" xmlns:xlink="http://www.w3.org/1999/xlink" version="1.1" x="0px" y="0px" viewBox="0 0 800 1000" enable-background="new 0 0 800 800" xml:space="preserve"><path fill="#000000" d="M709.673,734.584H451.396V498.695h152.313c3.801,0,7.457-1.458,10.221-4.069l65.812-62.388  c2.96-2.8,4.636-6.703,4.636-10.779c0-4.077-1.676-7.98-4.636-10.78l-65.812-62.366c-2.764-2.615-6.42-4.073-10.221-4.073H451.396  v-74.549h152.313c3.801,0,7.457-1.458,10.221-4.073l65.812-62.366c2.96-2.804,4.636-6.703,4.636-10.783  c0-4.077-1.676-7.976-4.636-10.784l-65.812-62.369c-2.764-2.615-6.42-4.073-10.221-4.073H451.396V87.096  c0-28.339-23.054-51.393-51.396-51.393c-28.321,0-51.382,23.051-51.404,51.393v28.147H196.299c-3.801,0-7.458,1.458-10.221,4.073  l-65.812,62.369c-2.959,2.808-4.635,6.707-4.635,10.784c0,4.081,1.676,7.979,4.635,10.783l65.812,62.366  c2.764,2.615,6.42,4.073,10.221,4.073h152.297v224.441H196.299c-3.801,0-7.458,1.459-10.221,4.077l-65.812,62.365  c-2.959,2.801-4.635,6.703-4.635,10.78s1.676,7.979,4.635,10.78l65.812,62.372c2.764,2.619,6.42,4.077,10.221,4.077h152.297v86  H90.328c-8.205,0-14.857,6.652-14.857,14.856c0,8.205,6.652,14.857,14.857,14.857h619.345c8.204,0,14.856-6.652,14.856-14.857  C724.529,741.236,717.877,734.584,709.673,734.584z M597.789,373.954l50.135,47.505l-50.135,47.522H451.396v-95.028H597.789z   M378.31,87.107c0.007-11.959,9.735-21.69,21.69-21.69s21.684,9.724,21.684,21.679v28.147H378.31V87.107z M152.083,192.469  l50.135-47.512h395.571l50.135,47.512l-50.135,47.508H202.218L152.083,192.469z M202.218,618.87l-50.135-47.516l50.135-47.509  h146.377v95.024H202.218z M378.31,269.691h43.374v464.893H378.31V269.691z"/><text x="0" y="815" fill="#000000" font-size="5px" font-weight="bold" font-family="'Helvetica Neue', Helvetica, Arial-Unicode, Arial, Sans-serif">Created by abderraouf omara</text><text x="0" y="820" fill="#000000" font-size="5px" font-weight="bold" font-family="'Helvetica Neue', Helvetica, Arial-Unicode, Arial, Sans-serif">from the Noun Project</text></svg>